<?xml version="1.0" encoding="UTF-8"?>
<svg xmlns="http://www.w3.org/2000/svg"
     viewBox="0 0 1200 320"
     width="1200" height="320"
     role="img" aria-label="Aileron — Event Intelligence Platform">
  <title>Aileron — Event Intelligence Platform</title>
  <defs>
    <linearGradient id="f-g" x1="0%" y1="0%" x2="100%" y2="100%">
      <stop offset="0%"   stop-color="#00D4FF"/>
      <stop offset="30%"  stop-color="#3B82F6"/>
      <stop offset="65%"  stop-color="#6366F1"/>
      <stop offset="100%" stop-color="#8B5CF6"/>
    </linearGradient>
    <!-- Subtle background gradient -->
    <linearGradient id="f-bg" x1="0%" y1="0%" x2="100%" y2="100%">
      <stop offset="0%"   stop-color="#08081A"/>
      <stop offset="100%" stop-color="#0D0B1E"/>
    </linearGradient>
    <!-- Accent glow for background border -->
    <linearGradient id="f-border" x1="0%" y1="0%" x2="100%" y2="0%">
      <stop offset="0%"   stop-color="#00D4FF" stop-opacity="0.3"/>
      <stop offset="50%"  stop-color="#6366F1" stop-opacity="0.5"/>
      <stop offset="100%" stop-color="#8B5CF6" stop-opacity="0.3"/>
    </linearGradient>
    <filter id="f-glow" x="-40%" y="-40%" width="180%" height="180%">
      <feGaussianBlur stdDeviation="3.5" result="b"/>
      <feMerge><feMergeNode in="b"/><feMergeNode in="SourceGraphic"/></feMerge>
    </filter>
    <filter id="f-hub" x="-80%" y="-80%" width="260%" height="260%">
      <feGaussianBlur stdDeviation="6" result="b"/>
      <feMerge><feMergeNode in="b"/><feMergeNode in="SourceGraphic"/></feMerge>
    </filter>
  </defs>

  <!-- Background card -->
  <rect width="1200" height="320" rx="20" fill="url(#f-bg)"/>
  <!-- Accent border -->
  <rect width="1200" height="320" rx="20"
        fill="none" stroke="url(#f-border)" stroke-width="1.5"/>

  <!-- Icon mark -->
  <g transform="translate(30 30)">
    <path d="M130 240 L220 20 L255 20 L165 240 Z" fill="url(#f-g)"/>
    <path d="M340 240 L250 20 L285 20 L375 240 Z" fill="url(#f-g)"/>
    <g stroke="url(#f-g)" fill="none" filter="url(#f-glow)">
      <line x1="252" y1="72"  x2="182" y2="132" stroke-width="5.5" stroke-linecap="round"/>
      <line x1="252" y1="72"  x2="322" y2="132" stroke-width="5.5" stroke-linecap="round"/>
      <line x1="182" y1="132" x2="252" y2="192" stroke-width="5.5" stroke-linecap="round"/>
      <line x1="322" y1="132" x2="252" y2="192" stroke-width="5.5" stroke-linecap="round"/>
      <line x1="182" y1="132" x2="322" y2="132" stroke-width="6.5" stroke-linecap="round"/>
      <line x1="252" y1="72"  x2="252" y2="192" stroke-width="4"   stroke-linecap="round"/>
    </g>
    <circle cx="252" cy="72"  r="9.5"  fill="url(#f-g)" filter="url(#f-glow)"/>
    <circle cx="182" cy="132" r="9.5"  fill="url(#f-g)" filter="url(#f-glow)"/>
    <circle cx="322" cy="132" r="9.5"  fill="url(#f-g)" filter="url(#f-glow)"/>
    <circle cx="252" cy="132" r="17"   fill="url(#f-g)" filter="url(#f-hub)"/>
    <circle cx="252" cy="132" r="8"    fill="white" opacity="0.22"/>
    <circle cx="252" cy="192" r="11.5" fill="url(#f-g)" filter="url(#f-hub)"/>
    <circle cx="252" cy="192" r="5"    fill="white" opacity="0.30"/>
  </g>

  <!-- Vertical separator -->
  <line x1="472" y1="52" x2="472" y2="268"
        stroke="white" stroke-opacity="0.08" stroke-width="1"/>

  <!-- Wordmark block -->
  <g transform="translate(504 126)">
    <text x="0" y="0"
          font-family="'Inter', 'DM Sans', 'Helvetica Neue', Arial, sans-serif"
          font-size="96" font-weight="800" letter-spacing="-3"
          fill="#FFFFFF">AILERON</text>

    <text x="4" y="52"
          font-family="'Inter', 'Helvetica Neue', Arial, sans-serif"
          font-size="20" font-weight="500" letter-spacing="8"
          fill="url(#f-g)" opacity="0.85">EVENT INTELLIGENCE</text>

    <!-- Separator rule -->
    <line x1="0" y1="82" x2="620" y2="82"
          stroke="white" stroke-opacity="0.10" stroke-width="1"/>

    <!-- Product tagline -->
    <text x="0" y="118"
          font-family="'Inter', 'Helvetica Neue', Arial, sans-serif"
          font-size="18" font-weight="400" letter-spacing="0.3"
          fill="white" opacity="0.45">
      Correlate  ·  Explain  ·  Resolve  ·  Automate
    </text>
  </g>
</svg>
