<!--
  AILERON LOGO SYSTEM
  Senior brand design — aviation × event intelligence × AIOps
  Designed for dark mode (GitHub, dashboards, dark UIs)

  Mark anatomy:
  ● Delta wing planform = swept-back aviation form
  ● Y-graph skeleton = event correlation architecture
  ● Indigo → cyan gradient = signals flowing to root cause
  ● Two source nodes (top) → correlation node → root cause apex (bottom)

  VARIANTS:
    1. aileron-icon.svg        — Mark only, scales from 16px favicon to 512px
    2. aileron-horizontal.svg  — Horizontal lockup (icon + wordmark)
    3. aileron-full.svg        — Full logo with tagline
    4. aileron-vertical.svg    — Vertical stacked lockup
    5. aileron-mono.svg        — Monochrome (white) for single-color contexts
-->

<!-- ═══════════════════════════════════════════════════════════════════
     1. ICON MARK  ·  aileron-icon.svg
     Readable from 16px favicon to 512px app icon
     ═══════════════════════════════════════════════════════════════════ -->
<svg xmlns="http://www.w3.org/2000/svg" viewBox="0 0 100 100" width="100" height="100" overflow="visible" role="img" aria-label="Aileron icon">
  <title>Aileron</title>
  <defs>
    <linearGradient id="ic-wing" x1="50" y1="20" x2="50" y2="66" gradientUnits="userSpaceOnUse">
      <stop offset="0%" stop-color="#6366F1"/>
      <stop offset="100%" stop-color="#3730A3"/>
    </linearGradient>
    <linearGradient id="ic-ail" x1="50" y1="54" x2="50" y2="92" gradientUnits="userSpaceOnUse">
      <stop offset="0%" stop-color="#4F46E5"/>
      <stop offset="100%" stop-color="#06B6D4"/>
    </linearGradient>
    <radialGradient id="ic-apex" cx="50" cy="88" r="11" gradientUnits="userSpaceOnUse">
      <stop offset="0%"   stop-color="#FFFFFF"/>
      <stop offset="38%"  stop-color="#67E8F9"/>
      <stop offset="100%" stop-color="#0284C7" stop-opacity="0"/>
    </radialGradient>
    <filter id="ic-glow" x="-60%" y="-60%" width="220%" height="220%">
      <feGaussianBlur stdDeviation="2" result="b"/>
      <feMerge><feMergeNode in="b"/><feMergeNode in="SourceGraphic"/></feMerge>
    </filter>
  </defs>

  <!-- Wing body — main delta trapezoid, curved leading edge -->
  <path d="M 12,22 C 32,17 68,17 88,22 L 63,65 C 57,62 43,62 37,65 Z"
        fill="url(#ic-wing)"/>

  <!-- Aileron section — lower triangle, indigo → cyan signal -->
  <path d="M 37,65 C 43,62 57,62 63,65 L 50,88 Z"
        fill="url(#ic-ail)"/>

  <!-- Hinge line — aileron deflection joint -->
  <path d="M 36,65 C 43,61 57,61 64,65"
        fill="none" stroke="rgba(255,255,255,0.20)"
        stroke-width="1.2" stroke-linecap="round"/>

  <!-- Graph skeleton: Y-structure (2 sources → correlation → root cause) -->
  <line x1="12" y1="22" x2="50" y2="52"
        stroke="rgba(255,255,255,0.14)" stroke-width="1.5" stroke-linecap="round"/>
  <line x1="88" y1="22" x2="50" y2="52"
        stroke="rgba(255,255,255,0.14)" stroke-width="1.5" stroke-linecap="round"/>
  <line x1="50" y1="52" x2="50" y2="88"
        stroke="rgba(255,255,255,0.09)" stroke-width="1.5" stroke-linecap="round"/>

  <!-- Event source nodes (alert origins, wing tips) -->
  <circle cx="12" cy="22" r="5.2" fill="white" opacity="0.90" filter="url(#ic-glow)"/>
  <circle cx="88" cy="22" r="5.2" fill="white" opacity="0.90" filter="url(#ic-glow)"/>

  <!-- Correlation node (where signals converge) -->
  <circle cx="50" cy="52" r="3.5" fill="white" opacity="0.62"/>

  <!-- Root cause apex (the identified root cause — brightest focal point) -->
  <circle cx="50" cy="88" r="9"   fill="url(#ic-apex)"/>
  <circle cx="50" cy="88" r="3.4" fill="white"/>
</svg>


<!-- ═══════════════════════════════════════════════════════════════════
     2. HORIZONTAL LOCKUP  ·  aileron-horizontal.svg
     Primary lockup for README headers, docs, nav bars
     ═══════════════════════════════════════════════════════════════════ -->
<svg xmlns="http://www.w3.org/2000/svg" viewBox="0 0 268 72" width="268" height="72" role="img" aria-label="Aileron">
  <title>Aileron</title>
  <defs>
    <linearGradient id="h-wing" x1="50" y1="22" x2="50" y2="66" gradientUnits="userSpaceOnUse">
      <stop offset="0%" stop-color="#6366F1"/>
      <stop offset="100%" stop-color="#3730A3"/>
    </linearGradient>
    <linearGradient id="h-ail" x1="50" y1="54" x2="50" y2="92" gradientUnits="userSpaceOnUse">
      <stop offset="0%" stop-color="#4F46E5"/>
      <stop offset="100%" stop-color="#06B6D4"/>
    </linearGradient>
    <radialGradient id="h-apex" cx="50" cy="88" r="11" gradientUnits="userSpaceOnUse">
      <stop offset="0%"   stop-color="#FFFFFF"/>
      <stop offset="38%"  stop-color="#67E8F9"/>
      <stop offset="100%" stop-color="#0284C7" stop-opacity="0"/>
    </radialGradient>
    <filter id="h-glow" x="-60%" y="-60%" width="220%" height="220%">
      <feGaussianBlur stdDeviation="2" result="b"/>
      <feMerge><feMergeNode in="b"/><feMergeNode in="SourceGraphic"/></feMerge>
    </filter>
  </defs>

  <!-- Icon mark scaled to 52×52, centered vertically in 72px canvas -->
  <g transform="translate(10,10) scale(0.52)">
    <path d="M 12,22 C 32,17 68,17 88,22 L 63,65 C 57,62 43,62 37,65 Z"
          fill="url(#h-wing)"/>
    <path d="M 37,65 C 43,62 57,62 63,65 L 50,88 Z"
          fill="url(#h-ail)"/>
    <path d="M 36,65 C 43,61 57,61 64,65"
          fill="none" stroke="rgba(255,255,255,0.20)"
          stroke-width="1.2" stroke-linecap="round"/>
    <line x1="12" y1="22" x2="50" y2="52"
          stroke="rgba(255,255,255,0.14)" stroke-width="1.5" stroke-linecap="round"/>
    <line x1="88" y1="22" x2="50" y2="52"
          stroke="rgba(255,255,255,0.14)" stroke-width="1.5" stroke-linecap="round"/>
    <line x1="50" y1="52" x2="50" y2="88"
          stroke="rgba(255,255,255,0.09)" stroke-width="1.5" stroke-linecap="round"/>
    <circle cx="12" cy="22" r="5.2" fill="white" opacity="0.90" filter="url(#h-glow)"/>
    <circle cx="88" cy="22" r="5.2" fill="white" opacity="0.90" filter="url(#h-glow)"/>
    <circle cx="50" cy="52" r="3.5" fill="white" opacity="0.62"/>
    <circle cx="50" cy="88" r="9"   fill="url(#h-apex)"/>
    <circle cx="50" cy="88" r="3.4" fill="white"/>
  </g>

  <!-- Wordmark -->
  <text x="76" y="45"
        font-family="'Inter', 'DM Sans', -apple-system, 'Helvetica Neue', Arial, sans-serif"
        font-size="33" font-weight="800" letter-spacing="-1.4"
        fill="#FFFFFF">aileron</text>
</svg>


<!-- ═══════════════════════════════════════════════════════════════════
     3. FULL LOGO WITH TAGLINE  ·  aileron-full.svg
     GitHub README hero, product pages, pitch decks
     ═══════════════════════════════════════════════════════════════════ -->
<svg xmlns="http://www.w3.org/2000/svg" viewBox="0 0 320 96" width="320" height="96" role="img" aria-label="Aileron — Event Intelligence Platform">
  <title>Aileron — Event Intelligence Platform</title>
  <defs>
    <linearGradient id="hf-wing" x1="50" y1="22" x2="50" y2="66" gradientUnits="userSpaceOnUse">
      <stop offset="0%" stop-color="#6366F1"/>
      <stop offset="100%" stop-color="#3730A3"/>
    </linearGradient>
    <linearGradient id="hf-ail" x1="50" y1="54" x2="50" y2="92" gradientUnits="userSpaceOnUse">
      <stop offset="0%" stop-color="#4F46E5"/>
      <stop offset="100%" stop-color="#06B6D4"/>
    </linearGradient>
    <radialGradient id="hf-apex" cx="50" cy="88" r="11" gradientUnits="userSpaceOnUse">
      <stop offset="0%"   stop-color="#FFFFFF"/>
      <stop offset="38%"  stop-color="#67E8F9"/>
      <stop offset="100%" stop-color="#0284C7" stop-opacity="0"/>
    </radialGradient>
    <filter id="hf-glow" x="-60%" y="-60%" width="220%" height="220%">
      <feGaussianBlur stdDeviation="2" result="b"/>
      <feMerge><feMergeNode in="b"/><feMergeNode in="SourceGraphic"/></feMerge>
    </filter>
  </defs>

  <!-- Background pill (optional, for standalone display) -->
  <rect width="320" height="96" rx="14" fill="#0A0A14"/>

  <!-- Icon mark, 60×60, vertically centered -->
  <g transform="translate(18,18) scale(0.60)">
    <path d="M 12,22 C 32,17 68,17 88,22 L 63,65 C 57,62 43,62 37,65 Z"
          fill="url(#hf-wing)"/>
    <path d="M 37,65 C 43,62 57,62 63,65 L 50,88 Z"
          fill="url(#hf-ail)"/>
    <path d="M 36,65 C 43,61 57,61 64,65"
          fill="none" stroke="rgba(255,255,255,0.20)"
          stroke-width="1.2" stroke-linecap="round"/>
    <line x1="12" y1="22" x2="50" y2="52"
          stroke="rgba(255,255,255,0.14)" stroke-width="1.5" stroke-linecap="round"/>
    <line x1="88" y1="22" x2="50" y2="52"
          stroke="rgba(255,255,255,0.14)" stroke-width="1.5" stroke-linecap="round"/>
    <line x1="50" y1="52" x2="50" y2="88"
          stroke="rgba(255,255,255,0.09)" stroke-width="1.5" stroke-linecap="round"/>
    <circle cx="12" cy="22" r="5.2" fill="white" opacity="0.90" filter="url(#hf-glow)"/>
    <circle cx="88" cy="22" r="5.2" fill="white" opacity="0.90" filter="url(#hf-glow)"/>
    <circle cx="50" cy="52" r="3.5" fill="white" opacity="0.62"/>
    <circle cx="50" cy="88" r="9"   fill="url(#hf-apex)"/>
    <circle cx="50" cy="88" r="3.4" fill="white"/>
  </g>

  <!-- Primary wordmark -->
  <text x="92" y="48"
        font-family="'Inter', 'DM Sans', -apple-system, 'Helvetica Neue', Arial, sans-serif"
        font-size="32" font-weight="800" letter-spacing="-1.2"
        fill="#FFFFFF">aileron</text>

  <!-- Tagline -->
  <text x="94" y="68"
        font-family="'Inter', -apple-system, 'Helvetica Neue', Arial, sans-serif"
        font-size="10" font-weight="500" letter-spacing="2.6"
        fill="#6366F1">EVENT INTELLIGENCE</text>

  <!-- "Open Source" badge -->
  <rect x="93" y="76" width="82" height="13" rx="6"
        fill="none" stroke="#1E1B4B" stroke-width="1"/>
  <text x="134" y="86.5"
        font-family="'Inter', monospace, sans-serif"
        font-size="8" font-weight="500" letter-spacing="0.5"
        text-anchor="middle" fill="#4338CA">Apache 2.0  ·  Open Source</text>
</svg>


<!-- ═══════════════════════════════════════════════════════════════════
     4. VERTICAL STACKED  ·  aileron-vertical.svg
     App store icons, square social cards, compact embeds
     ═══════════════════════════════════════════════════════════════════ -->
<svg xmlns="http://www.w3.org/2000/svg" viewBox="0 0 180 216" width="180" height="216" role="img" aria-label="Aileron">
  <title>Aileron</title>
  <defs>
    <linearGradient id="v-wing" x1="50" y1="22" x2="50" y2="66" gradientUnits="userSpaceOnUse">
      <stop offset="0%" stop-color="#6366F1"/>
      <stop offset="100%" stop-color="#3730A3"/>
    </linearGradient>
    <linearGradient id="v-ail" x1="50" y1="54" x2="50" y2="92" gradientUnits="userSpaceOnUse">
      <stop offset="0%" stop-color="#4F46E5"/>
      <stop offset="100%" stop-color="#06B6D4"/>
    </linearGradient>
    <radialGradient id="v-apex" cx="50" cy="88" r="11" gradientUnits="userSpaceOnUse">
      <stop offset="0%"   stop-color="#FFFFFF"/>
      <stop offset="38%"  stop-color="#67E8F9"/>
      <stop offset="100%" stop-color="#0284C7" stop-opacity="0"/>
    </radialGradient>
    <filter id="v-glow" x="-60%" y="-60%" width="220%" height="220%">
      <feGaussianBlur stdDeviation="2" result="b"/>
      <feMerge><feMergeNode in="b"/><feMergeNode in="SourceGraphic"/></feMerge>
    </filter>
  </defs>

  <!-- Icon mark 88×88, horizontally centered -->
  <g transform="translate(46,16) scale(0.88)">
    <path d="M 12,22 C 32,17 68,17 88,22 L 63,65 C 57,62 43,62 37,65 Z"
          fill="url(#v-wing)"/>
    <path d="M 37,65 C 43,62 57,62 63,65 L 50,88 Z"
          fill="url(#v-ail)"/>
    <path d="M 36,65 C 43,61 57,61 64,65"
          fill="none" stroke="rgba(255,255,255,0.20)"
          stroke-width="1.2" stroke-linecap="round"/>
    <line x1="12" y1="22" x2="50" y2="52"
          stroke="rgba(255,255,255,0.14)" stroke-width="1.5" stroke-linecap="round"/>
    <line x1="88" y1="22" x2="50" y2="52"
          stroke="rgba(255,255,255,0.14)" stroke-width="1.5" stroke-linecap="round"/>
    <line x1="50" y1="52" x2="50" y2="88"
          stroke="rgba(255,255,255,0.09)" stroke-width="1.5" stroke-linecap="round"/>
    <circle cx="12" cy="22" r="5.2" fill="white" opacity="0.90" filter="url(#v-glow)"/>
    <circle cx="88" cy="22" r="5.2" fill="white" opacity="0.90" filter="url(#v-glow)"/>
    <circle cx="50" cy="52" r="3.5" fill="white" opacity="0.62"/>
    <circle cx="50" cy="88" r="9"   fill="url(#v-apex)"/>
    <circle cx="50" cy="88" r="3.4" fill="white"/>
  </g>

  <!-- Primary wordmark (centered) -->
  <text x="90" y="140"
        font-family="'Inter', 'DM Sans', -apple-system, 'Helvetica Neue', Arial, sans-serif"
        font-size="36" font-weight="800" letter-spacing="-1.6"
        text-anchor="middle" fill="#FFFFFF">aileron</text>

  <!-- Tagline (centered) -->
  <text x="90" y="163"
        font-family="'Inter', -apple-system, 'Helvetica Neue', Arial, sans-serif"
        font-size="9.5" font-weight="500" letter-spacing="2.8"
        text-anchor="middle" fill="#6366F1">EVENT INTELLIGENCE</text>

  <!-- Subtle rule -->
  <line x1="56" y1="173" x2="124" y2="173"
        stroke="#1E1B4B" stroke-width="0.8"/>

  <!-- Open source line -->
  <text x="90" y="188"
        font-family="'Inter', -apple-system, 'Helvetica Neue', Arial, sans-serif"
        font-size="9" font-weight="400" letter-spacing="0.8"
        text-anchor="middle" fill="#3730A3">Open Source  ·  Apache 2.0</text>
</svg>


<!-- ═══════════════════════════════════════════════════════════════════
     5. MONOCHROME  ·  aileron-mono.svg
     Single-color contexts: embossing, watermarks, print, favicons
     Uses currentColor — inherits text color from parent CSS
     On dark bg: set color:white  |  On light bg: set color:#111827
     ═══════════════════════════════════════════════════════════════════ -->
<svg xmlns="http://www.w3.org/2000/svg" viewBox="0 0 268 72" width="268" height="72" role="img" aria-label="Aileron">
  <title>Aileron</title>

  <!-- Icon mark, 52×52, monochrome via currentColor + opacity tiers -->
  <g transform="translate(10,10) scale(0.52)">

    <!-- Wing body -->
    <path d="M 12,22 C 32,17 68,17 88,22 L 63,65 C 57,62 43,62 37,65 Z"
          fill="currentColor" opacity="0.90"/>

    <!-- Aileron section (slightly lighter to preserve hinge read) -->
    <path d="M 37,65 C 43,62 57,62 63,65 L 50,88 Z"
          fill="currentColor" opacity="0.68"/>

    <!-- Hinge line -->
    <path d="M 36,65 C 43,61 57,61 64,65"
          fill="none" stroke="currentColor" stroke-opacity="0.35"
          stroke-width="1.4" stroke-linecap="round"/>

    <!-- Graph skeleton -->
    <line x1="12" y1="22" x2="50" y2="52"
          stroke="currentColor" stroke-opacity="0.30"
          stroke-width="1.5" stroke-linecap="round"/>
    <line x1="88" y1="22" x2="50" y2="52"
          stroke="currentColor" stroke-opacity="0.30"
          stroke-width="1.5" stroke-linecap="round"/>
    <line x1="50" y1="52" x2="50" y2="88"
          stroke="currentColor" stroke-opacity="0.22"
          stroke-width="1.5" stroke-linecap="round"/>

    <!-- Source nodes (punched out as white circles over the fill) -->
    <circle cx="12" cy="22" r="5.2" fill="currentColor" opacity="1"/>
    <circle cx="88" cy="22" r="5.2" fill="currentColor" opacity="1"/>
    <circle cx="12" cy="22" r="3.4" fill="currentColor" opacity="0" style="mix-blend-mode:normal"/>

    <!-- Correlation node -->
    <circle cx="50" cy="52" r="3.5" fill="currentColor" opacity="0.55"/>

    <!-- Apex node -->
    <circle cx="50" cy="88" r="9"   fill="currentColor" opacity="0.80"/>
    <circle cx="50" cy="88" r="4"   fill="currentColor" opacity="0" style="mix-blend-mode:normal"/>

  </g>

  <!-- Wordmark -->
  <text x="76" y="45"
        font-family="'Inter', 'DM Sans', -apple-system, 'Helvetica Neue', Arial, sans-serif"
        font-size="33" font-weight="800" letter-spacing="-1.4"
        fill="currentColor">aileron</text>
</svg>
