<?xml version="1.0" encoding="UTF-8"?>
<svg xmlns="http://www.w3.org/2000/svg"
     viewBox="0 0 1200 300"
     width="1200" height="300"
     role="img" aria-label="Aileron — Event Intelligence Platform">
  <title>Aileron</title>
  <defs>
    <linearGradient id="h-g" x1="0%" y1="0%" x2="100%" y2="100%">
      <stop offset="0%"   stop-color="#00D4FF"/>
      <stop offset="30%"  stop-color="#3B82F6"/>
      <stop offset="65%"  stop-color="#6366F1"/>
      <stop offset="100%" stop-color="#8B5CF6"/>
    </linearGradient>
    <filter id="h-glow" x="-40%" y="-40%" width="180%" height="180%">
      <feGaussianBlur stdDeviation="3.5" result="b"/>
      <feMerge><feMergeNode in="b"/><feMergeNode in="SourceGraphic"/></feMerge>
    </filter>
    <filter id="h-hub" x="-80%" y="-80%" width="260%" height="260%">
      <feGaussianBlur stdDeviation="6" result="b"/>
      <feMerge><feMergeNode in="b"/><feMergeNode in="SourceGraphic"/></feMerge>
    </filter>
  </defs>

  <!-- Icon mark (translate to center vertically in 300px canvas) -->
  <g transform="translate(30 20)">
    <path d="M130 240 L220 20 L255 20 L165 240 Z" fill="url(#h-g)"/>
    <path d="M340 240 L250 20 L285 20 L375 240 Z" fill="url(#h-g)"/>
    <g stroke="url(#h-g)" fill="none" filter="url(#h-glow)">
      <line x1="252" y1="72"  x2="182" y2="132" stroke-width="5.5" stroke-linecap="round"/>
      <line x1="252" y1="72"  x2="322" y2="132" stroke-width="5.5" stroke-linecap="round"/>
      <line x1="182" y1="132" x2="252" y2="192" stroke-width="5.5" stroke-linecap="round"/>
      <line x1="322" y1="132" x2="252" y2="192" stroke-width="5.5" stroke-linecap="round"/>
      <line x1="182" y1="132" x2="322" y2="132" stroke-width="6.5" stroke-linecap="round"/>
      <line x1="252" y1="72"  x2="252" y2="192" stroke-width="4"   stroke-linecap="round"/>
    </g>
    <circle cx="252" cy="72"  r="9.5"  fill="url(#h-g)" filter="url(#h-glow)"/>
    <circle cx="182" cy="132" r="9.5"  fill="url(#h-g)" filter="url(#h-glow)"/>
    <circle cx="322" cy="132" r="9.5"  fill="url(#h-g)" filter="url(#h-glow)"/>
    <circle cx="252" cy="132" r="17"   fill="url(#h-g)" filter="url(#h-hub)"/>
    <circle cx="252" cy="132" r="8"    fill="white" opacity="0.22"/>
    <circle cx="252" cy="192" r="11.5" fill="url(#h-g)" filter="url(#h-hub)"/>
    <circle cx="252" cy="192" r="5"    fill="white" opacity="0.30"/>
  </g>

  <!-- Vertical separator -->
  <line x1="472" y1="48" x2="472" y2="252"
        stroke="white" stroke-opacity="0.10" stroke-width="1"/>

  <!-- Wordmark -->
  <g transform="translate(504 88)">
    <!-- Primary name -->
    <text x="0" y="0"
          font-family="'Inter', 'DM Sans', 'Helvetica Neue', Arial, sans-serif"
          font-size="96" font-weight="800" letter-spacing="-3"
          fill="#FFFFFF">AILERON</text>

    <!-- Category label -->
    <text x="4" y="52"
          font-family="'Inter', 'Helvetica Neue', Arial, sans-serif"
          font-size="20" font-weight="500" letter-spacing="8"
          fill="url(#h-g)" opacity="0.85">EVENT INTELLIGENCE</text>
  </g>
</svg>
